<svg width="107" height="15" viewBox="0 0 107 15" fill="none" xmlns="http://www.w3.org/2000/svg">
<path fill-rule="evenodd" clip-rule="evenodd" d="M94.0656 0.164307H106.809V3.33775H102.553V15.0002H98.2953V3.33775H85.9094C85.0668 3.33775 84.592 3.58646 84.4805 4.08092C84.4631 4.10699 84.4544 4.1763 84.4544 4.28699V5.93447H93.0766V9.14769H84.4544V15.0002H80.1963V3.17365C80.1963 1.66133 80.9384 0.714359 82.4218 0.330675C82.8799 0.219894 83.63 0.164307 84.6743 0.164307H94.0656Z" fill="#0074B6"/>
<path fill-rule="evenodd" clip-rule="evenodd" d="M63.6902 3.33775C63.6902 3.0914 63.7276 2.82965 63.8011 2.55488C64.2588 0.96248 65.7134 0.164307 68.1681 0.164307H73.1928C76.1423 0.164307 77.6151 1.22186 77.6151 3.33775V11.787C77.6151 13.9289 76.1315 15.0002 73.1659 15.0002H68.1681C66.8132 15.0002 65.8044 14.814 65.1469 14.4438C64.4875 14.0731 64.0478 13.4481 63.8279 12.5698C63.7544 12.2945 63.7185 12.0463 63.7185 11.8267L63.6902 3.33775ZM67.9482 4.36873L67.9748 10.7554C67.9748 11.4429 68.4412 11.787 69.3766 11.787H71.9844C72.9192 11.787 73.3855 11.4833 73.3855 10.8798V4.36873C73.3855 3.68125 72.9192 3.33775 71.9844 3.33775H69.3766C68.4235 3.33775 67.9482 3.68125 67.9482 4.36873Z" fill="#0074B6"/>
<path fill-rule="evenodd" clip-rule="evenodd" d="M48.6121 3.0914C48.6121 2.84328 48.6496 2.59694 48.723 2.34882C49.2165 0.893763 50.5267 0.164307 52.6506 0.164307H61.3018V3.33775L53.8032 3.37981C53.1811 3.40647 52.8701 3.63919 52.8701 4.08092V5.06985C52.8701 5.17827 52.8792 5.24699 52.8967 5.27591C52.9877 5.6597 53.3455 5.87938 53.9675 5.93447H54.2428H57.3197C58.2346 5.93447 59.0409 6.1122 59.7364 6.46922C60.7799 6.96369 61.3018 7.76196 61.3018 8.85986V11.8687C61.3018 13.0484 60.7621 13.9159 59.6807 14.4637C58.9477 14.8208 58.0704 15.0002 57.0439 15.0002H48.6411V11.787H56.0557C56.7153 11.6206 57.0439 11.3322 57.0439 10.9195V9.84883C57.0439 9.43607 56.742 9.20331 56.1375 9.14769H52.5948C51.1664 9.14769 50.0605 8.70882 49.2717 7.83068C48.8322 7.33612 48.6121 6.79969 48.6121 6.22288V3.0914Z" fill="#0074B6"/>
<path fill-rule="evenodd" clip-rule="evenodd" d="M32.0236 0.164307H42.2416C44.2005 0.164307 45.4265 0.700735 45.9224 1.77201C46.0867 2.12913 46.1686 2.70594 46.1686 3.50184V4.69743C46.1686 6.12751 45.6 7.07437 44.4649 7.54228C45.6381 7.92595 46.2244 8.80424 46.2244 10.1792V11.6627C46.2244 13.8868 44.8317 15.0002 42.0482 15.0002H32.0236V0.164307ZM36.2816 3.33775V5.93447H40.9775C41.6371 5.87938 41.9663 5.61764 41.9663 5.1516V4.16268C41.9663 3.8879 41.8105 3.65508 41.4995 3.46206C41.2976 3.37981 41.1243 3.33775 40.9775 3.33775H36.2816ZM36.2816 9.14769V11.787H40.9508C41.5904 11.7313 41.9106 11.4565 41.9106 10.962V10.0129C41.9106 9.52073 41.5638 9.22997 40.8688 9.14769H36.2816Z" fill="#0074B6"/>
<path fill-rule="evenodd" clip-rule="evenodd" d="M0 11.3741V0.164096H4.25803V11.1259C4.25803 11.5648 4.61564 11.7868 5.32869 11.7868H14.5868L18.705 1.97796C19.2537 0.658561 20.371 0 22.0548 0C23.721 0 24.8292 0.658561 25.3779 1.97796L30.8443 15H26.3952L25.0492 11.7868H19.0336L17.6876 15H4.94438C4.68902 15 4.45137 14.9734 4.23122 14.958C2.73007 14.8627 1.64793 14.5544 0.990556 13.9913C0.330911 13.4275 0 12.5538 0 11.3741ZM20.2977 8.77732H23.7851L21.7796 3.95641L20.2977 8.77732Z" fill="#0074B6"/>
</svg>
